<?xml version="1.0" encoding="utf-8"?>
<!-- Generator: Adobe Illustrator 27.5.0, SVG Export Plug-In . SVG Version: 6.00 Build 0)  -->
<svg version="1.1" xmlns="http://www.w3.org/2000/svg" xmlns:xlink="http://www.w3.org/1999/xlink" x="0px" y="0px"
	 viewBox="0 0 500 500" style="enable-background:new 0 0 500 500;" xml:space="preserve">
<g id="BACKGROUND">
	<rect style="fill:#FFE9E3;" width="500" height="500"/>
</g>
<g id="OBJECT">
	<g>
		<g>
			<defs>
				<rect id="SVGID_1_" width="500" height="500"/>
			</defs>
			<clipPath id="SVGID_00000014631060834537173720000012127760635815327663_">
				<use xlink:href="#SVGID_1_"  style="overflow:visible;"/>
			</clipPath>
			<g style="clip-path:url(#SVGID_00000014631060834537173720000012127760635815327663_);">
				<g>
					<circle style="fill:#FFAB2F;" cx="265.258" cy="198.728" r="66.95"/>
					<g>
						<path style="fill:#80AA74;" d="M152.693,222.578L152.693,222.578c0-4.418-3.582-8-8-8h-3.652c-4.418,0-8,3.582-8,8l0,0l0,0
							c-2.519,0-4.561,2.042-4.561,4.561v22.628h28.773v-22.628C157.254,224.62,155.212,222.578,152.693,222.578L152.693,222.578z"
							/>
						<g>
							<path style="fill:#5C8951;" d="M67.095,249.767H54.746v-51.959c0-6.82,5.529-12.349,12.349-12.349l0,0V249.767z"/>
							<path style="fill:#80AA74;" d="M67.095,249.767h18.174v-68.968c0-5.019-4.068-9.087-9.087-9.087l0,0
								c-5.019,0-9.087,4.068-9.087,9.087V249.767z"/>
							<path style="fill:#5C8951;" d="M97.307,249.767H85.269v-65.628l0,0c6.649,0,12.038,5.39,12.038,12.038V249.767z"/>
							<path style="fill:#80AA74;" d="M97.307,249.767h7.395v-48.525c0-4.084-3.311-7.395-7.395-7.395l0,0V249.767z"/>
						</g>
						<g>
							<rect x="0.32" y="207.717" style="fill:#5C8951;" width="13.454" height="42.05"/>
							<path style="fill:#80AA74;" d="M13.774,249.767h19.8v-41.139c0-5.468-4.432-9.9-9.9-9.9h0c-5.467,0-9.9,4.432-9.9,9.9
								V249.767z"/>
							<path style="fill:#5C8951;" d="M46.689,249.767H33.574v-42.913h6.092c3.879,0,7.023,3.144,7.023,7.023V249.767z"/>
							
								<rect x="46.689" y="213.202" transform="matrix(-1 -1.224647e-16 1.224647e-16 -1 101.4351 462.9688)" style="fill:#80AA74;" width="8.057" height="36.565"/>
						</g>
						<g>
							<polygon style="fill:#80AA74;" points="417.527,171.712 417.527,185.459 405.178,185.459 405.178,249.767 452.345,249.767 
								452.345,171.712 							"/>
							<path style="fill:#5C8951;" d="M366.755,249.079H378.5v-53.498c0-1.338-1.085-2.422-2.422-2.422h-6.9
								c-1.338,0-2.422,1.084-2.422,2.422V249.079z"/>
						</g>
						<path style="fill:#5C8951;" d="M178.391,207.439L178.391,207.439c0-4.418-3.582-8-8-8h-3.652c-4.418,0-8,3.582-8,8l0,0l0,0
							c-2.519,0-4.561,2.042-4.561,4.561v37.767h28.773V212C182.952,209.481,180.91,207.439,178.391,207.439L178.391,207.439z"/>
						<path style="fill:#5C8951;" d="M128.915,222.578L128.915,222.578c0-4.418-3.582-8-8-8h-3.652c-4.418,0-8,3.582-8,8l0,0l0,0
							c-2.519,0-4.561,2.042-4.561,4.561v22.628h28.773v-22.628C133.476,224.62,131.434,222.578,128.915,222.578L128.915,222.578z"
							/>
						<path style="fill:#5C8951;" d="M198.921,220.122L198.921,220.122c0-4.817-3.905-8.723-8.722-8.723h-3.982
							c-4.817,0-8.722,3.905-8.722,8.723l0,0l0,0c-2.747,0-4.973,2.227-4.973,4.973v24.672h31.373v-24.672
							C203.894,222.349,201.667,220.122,198.921,220.122L198.921,220.122z"/>
						<path style="fill:#5C8951;" d="M211.76,176.811v0.463c0,2.071-0.983,4.018-2.65,5.247v0c-1.424,1.051-3.148,1.618-4.918,1.618
							h-5.89c-2.09,0-3.784,1.694-3.784,3.784v61.844h24.799v-72.956c0-2.087-1.692-3.778-3.778-3.778l0,0
							C213.452,173.032,211.76,174.724,211.76,176.811z"/>
						<g>
							<rect x="228.481" y="182.352" style="fill:#5C8951;" width="28.043" height="67.415"/>
							<path style="fill:#5C8951;" d="M254.15,249.767h24.469v-38.682c0-1.542-1.25-2.792-2.792-2.792H254.15V249.767z"/>
							<path style="fill:#80AA74;" d="M272.536,249.767h24.469v-23.846c0-1.542-1.25-2.792-2.792-2.792h-21.678V249.767z"/>
							<path style="fill:#80AA74;" d="M248.25,174.974v-9.338c0-1.191-0.966-2.157-2.157-2.157h-9.338v11.495h-5.012v7.378h21.519
								v-7.378H248.25z"/>
						</g>
						<g>
							<path style="fill:#5C8951;" d="M336.831,217.789v-27.592h-15.533v59.57h15.434h0.1h15.533v-24.525
								c0-2.112-1.712-3.824-3.824-3.824h-8.08C338.456,221.419,336.831,219.794,336.831,217.789z"/>
							<path style="fill:#5C8951;" d="M315.339,143.373c-3.701,0-6.969,2.48-7.885,6.065c-0.739,2.893-1.281,6.861-1.281,12.146
								v5.364c0,1.13-0.916,2.046-2.045,2.046h-3.798c-2.309,0-4.181,1.872-4.181,4.181v3.197h-2.798
								c-2.057,0-3.725,1.668-3.725,3.725v69.669h28.043V143.373H315.339z"/>
						</g>
					</g>
					<g>
						<path style="fill:#80AA74;" d="M304.776,249.767h30.512c0.203,0,0.38-0.134,0.429-0.331c0.452-1.805,2.258-10.351-4.341-9.352
							c-0.233,0.035-0.457-0.104-0.509-0.334c-0.454-2.028-2.881-10.871-10.505-9.967c-7.242,0.858-7.721,6.864-7.691,8.745
							c0.004,0.28-0.249,0.489-0.524,0.437c-1.337-0.254-4.644-0.569-4.823,2.474c-0.013,0.214-0.19,0.385-0.404,0.398
							c-1.182,0.066-4.468,0.838-2.575,7.602C304.398,249.629,304.577,249.767,304.776,249.767z"/>
						<path style="fill:#80AA74;" d="M197.816,249.767h46.838c0,0,6.835-14.089-6.835-14.02c0,0-0.621-9.862-10.097-6.916
							c0,0-3.883-7.784-12.116-4.672c-8.233,3.113-4.815,11.115-4.815,11.115s-7.757,0.077-6.364,5.824
							C204.428,241.097,196.647,240.392,197.816,249.767z"/>
						<path style="fill:#5C8951;" d="M9.592,249.767h24.922c0,0,3.637-7.496-3.637-7.46c0,0-0.331-5.247-5.372-3.68
							c0,0-2.066-4.142-6.447-2.486c-4.38,1.656-2.562,5.914-2.562,5.914s-4.127,0.041-3.386,3.098
							C13.11,245.154,8.97,244.779,9.592,249.767z"/>
						<path style="fill:#5C8951;" d="M332.238,249.767c0,0,1.902-14.069,15.868-9.559c0,0-3.746-11.567,5.344-11.101
							c0,0-1.051-20.038,21.145-19.805c22.196,0.233,15.419,18.64,15.419,18.64s7.476-6.757,14.932-2.33s2.33,12.353,2.33,12.353
							s4.893-3.499,11.068-1.169c6.174,2.33,4.246,12.97,4.246,12.97H332.238z"/>
						<path style="fill:#5C8951;" d="M431.74,249.767h71.76c0,0-0.602-19.785-7-23.169c-2.7-1.428-6.128-1.77-9.083-1.715
							c-3.259,0.061-6.008-2.317-6.395-5.553c-0.507-4.238-2.476-9.204-8.78-10.041c-2.043-0.271-3.431-2.171-3.07-4.2
							c0.943-5.312,0.79-13.611-9.845-12.329c-10.547,1.271-10.98,13.263-10.187,20.767c0.316,2.987-1.415,5.836-4.241,6.855
							c-4.276,1.542-9.441,5.862-8.337,17.841c0.196,2.127-1.232,4.032-3.295,4.587C431.626,243.25,430.401,244.933,431.74,249.767z
							"/>
					</g>
					<g>
						<rect y="249.068" style="fill:#346E94;" width="500" height="51.726"/>
						<path style="opacity:0.4;fill:#326C92;" d="M184.514,249.217c-0.816,0.014-0.92,1.198-0.119,1.351
							c11.533,2.205,25.14,2.864,29.173,2.688c-5.971,0.261-22.531,1.455-30.964,2.331c-0.826,0.086-0.804,1.295,0.025,1.353
							c12.867,0.891,31.625,1.88,39.69,2.293c0.353,0.018,0.36,0.537,0.007,0.562c-8.82,0.635-23.413,0.828-31.423,1.295
							c-0.784,0.046-0.871,1.166-0.105,1.34l6.397,1.457c7.772,1.77,26.669,3.55,37.173,4.448c0.822,0.07,0.825,1.268,0.005,1.352
							l-11.084,1.136c-0.813,0.083-0.817,1.267-0.004,1.352c5.295,0.554,11.55,0.997,16.491,1.302
							c0.833,0.052,0.852,1.268,0.022,1.353l-5.825,0.597c-0.748,0.077-0.842,1.13-0.118,1.33c4.895,1.35,14.814,3.544,25.993,2.968
							c9.998-0.515,19.453-1.708,25.087-2.521c0.789-0.114,0.762-1.257-0.031-1.345c-2.479-0.278-3.676-0.591-5.84-0.899
							c-0.835-0.119-0.74-1.347,0.103-1.348c12.943-0.011,23.859-1.059,30.601-1.77c0.803-0.085,0.812-1.25,0.011-1.348
							c-6.258-0.768-13.08-1.515-18.561-2.092c-0.836-0.088-0.795-1.32,0.045-1.353c13.025-0.523,25.848-1.689,33.3-2.449
							c0.822-0.084,0.803-1.286-0.02-1.352c-5.481-0.438-12.508-0.854-18.773-1.189c-0.857-0.046-0.852-1.311,0.005-1.355
							c12.748-0.664,24.714-1.649,31.619-2.265c0.813-0.073,0.83-1.254,0.02-1.349c-6.534-0.764-15.46-1.66-22.647-2.355
							c-0.845-0.082-0.798-1.329,0.051-1.354c15.128-0.453,24.114-1.561,28.919-2.386c0.792-0.136,0.727-1.294-0.075-1.346
							c-3.586-0.229-7.744-0.421-12.342-0.583H193.537C189.938,249.125,186.887,249.176,184.514,249.217z"/>
					</g>
				</g>
				<g>
					<rect y="300.794" style="fill:#80AA74;" width="500" height="199.206"/>
					<g>
						<g>
							<path style="fill:#5C8951;" d="M-60.079,300.956H70.796c1.622,0,2.938,1.315,2.938,2.938v0.837
								c0,1.622-1.315,2.938-2.938,2.938H-60.079c-1.622,0-2.938-1.315-2.938-2.938v-0.837
								C-63.017,302.271-61.702,300.956-60.079,300.956z"/>
							<rect x="-57.322" y="227.634" style="fill:#0C1A3C;" width="6.018" height="43.376"/>
							<rect x="62.021" y="227.634" style="fill:#0C1A3C;" width="6.018" height="43.376"/>
							<path style="fill:#FDF3F1;" d="M67.482,276.897H-56.765c-1.626,0-2.944-1.318-2.944-2.944l0,0
								c0-1.626,1.318-2.944,2.944-2.944H67.482c1.626,0,2.944,1.318,2.944,2.944l0,0C70.426,275.579,69.108,276.897,67.482,276.897
								z"/>
							<path style="fill:#FDF3F1;" d="M67.482,227.634H-56.765c-1.626,0-2.944-1.318-2.944-2.944l0,0
								c0-1.626,1.318-2.944,2.944-2.944H67.482c1.626,0,2.944,1.318,2.944,2.944l0,0C70.426,226.316,69.108,227.634,67.482,227.634
								z"/>
							<path style="fill:#FDF3F1;" d="M67.482,238.694H-56.765c-1.626,0-2.944-1.318-2.944-2.944l0,0
								c0-1.626,1.318-2.944,2.944-2.944H67.482c1.626,0,2.944,1.318,2.944,2.944l0,0C70.426,237.376,69.108,238.694,67.482,238.694
								z"/>
							<path style="fill:#FDF3F1;" d="M67.482,249.754H-56.765c-1.626,0-2.944-1.318-2.944-2.944l0,0
								c0-1.626,1.318-2.944,2.944-2.944H67.482c1.626,0,2.944,1.318,2.944,2.944l0,0C70.426,248.436,69.108,249.754,67.482,249.754
								z"/>
							<path style="fill:#FDF3F1;" d="M67.482,260.814H-56.765c-1.626,0-2.944-1.318-2.944-2.944v0c0-1.626,1.318-2.944,2.944-2.944
								H67.482c1.626,0,2.944,1.318,2.944,2.944v0C70.426,259.496,69.108,260.814,67.482,260.814z"/>
							<rect x="-57.322" y="276.897" style="fill:#0C1A3C;" width="125.361" height="4.72"/>
							<path style="fill:#0C1A3C;" d="M-54.313,305.538L-54.313,305.538c-1.662,0-3.009-1.347-3.009-3.009v-25.632h6.018v25.632
								C-51.305,304.191-52.652,305.538-54.313,305.538z"/>
							<path style="fill:#0C1A3C;" d="M65.03,305.538L65.03,305.538c-1.662,0-3.009-1.347-3.009-3.009v-25.632h6.018v25.632
								C68.039,304.191,66.692,305.538,65.03,305.538z"/>
						</g>
						<g>
							<path style="fill:#AB1027;" d="M249.491,267.357l-17.753-0.042l-17.743,0.042l0.669-2.557
								c0.274-1.047,1.219-1.777,2.301-1.777h29.557c1.082,0,2.027,0.73,2.301,1.777L249.491,267.357z"/>
							<path style="fill:#CB1C3E;" d="M251.065,269.344v4.178c0,1.121-0.909,2.029-2.029,2.029H214.45
								c-1.121,0-2.029-0.909-2.029-2.029v-4.178c0-1.121,0.909-2.029,2.029-2.029h34.585
								C250.157,267.315,251.065,268.223,251.065,269.344z"/>
							<path style="fill:#5C8951;" d="M254.15,306.143c0,1.378-10.032,2.495-22.407,2.495c-12.375,0-22.407-1.117-22.407-2.495
								s10.032-2.495,22.407-2.495C244.118,303.648,254.15,304.766,254.15,306.143z"/>
							<path style="fill:#0C1A3C;" d="M249.491,275.551l-1.785,28.067c-0.076,1.192-1.065,2.12-2.259,2.12h-27.407
								c-1.194,0-2.183-0.928-2.259-2.12l-1.785-28.067H249.491z"/>
							
								<line style="fill:none;stroke:#CB1C3E;stroke-linecap:round;stroke-linejoin:round;stroke-miterlimit:10;" x1="222.03" y1="304.605" x2="220.936" y2="275.393"/>
							
								<line style="fill:none;stroke:#CB1C3E;stroke-linecap:round;stroke-linejoin:round;stroke-miterlimit:10;" x1="227.982" y1="304.605" x2="227.558" y2="275.393"/>
							
								<line style="fill:none;stroke:#CB1C3E;stroke-linecap:round;stroke-linejoin:round;stroke-miterlimit:10;" x1="241.453" y1="304.605" x2="242.547" y2="275.793"/>
							
								<line style="fill:none;stroke:#CB1C3E;stroke-linecap:round;stroke-linejoin:round;stroke-miterlimit:10;" x1="235.101" y1="304.605" x2="235.924" y2="275.393"/>
							<path style="opacity:0.3;fill:#0C1A3C;" d="M249.036,275.551c1.121,0,2.03-0.909,2.03-2.029v-4.178
								c0-0.98-0.695-1.797-1.618-1.988l0.044,0l-0.669-2.557c-0.274-1.047-1.219-1.777-2.301-1.777h-29.557l0,0
								c7.412,27.252,20.078,36.221,25.785,38.969c1.556,0.749,3.261,1.122,4.989,1.122l0,0l1.753-27.563H249.036z"/>
							<path style="fill:#0C1A3C;" d="M234.623,260.373v2.65h-5.771v-2.65c0-1.26,1.021-2.282,2.282-2.282h1.208
								C233.602,258.092,234.623,259.113,234.623,260.373z"/>
						</g>
					</g>
					<path style="fill:#5C8951;" d="M499.077,382.465V500H0V382.316c0,0,80.43,9.33,135.86,12.389
						c1.793,0.099,2.119-2.511,0.356-2.855l-17.537-5.414c-1.399-0.432-0.954-2.516,0.499-2.337
						c28.571,3.514,95.943,10.817,152.682,9.06c47.863-1.483,76.517-5.543,90.702-8.19c1.292-0.241,1.845,1.575,0.64,2.101
						l-14.137,6.167c-2.31,0.684-1.734,4.106,0.673,3.993C378.584,395.879,440.95,392.052,499.077,382.465z"/>
					<g>
						<path style="fill:#80AA74;" d="M376.428,303.114h-41.491c0,0-4.615-1.719-4.389-4.91c0.226-3.116,7.046-0.924,7.409-0.808
							c-0.356-0.151-6.779-3.02-4.896-7.211c1.897-4.211,8.163,0.575,8.436,0.788c-0.151-0.226-3.369-5.15-1.082-8.676
							c2.349-3.609,5.999,0.753,5.999,0.753s-3.225-10.984,3.26-11.429c0.199-0.014,0.404-0.02,0.623-0.014
							c7.3,0.233,7.19,10.799,7.19,10.799s4.109-6.8,7.985-4.403c3.759,2.322-1.144,8.491-1.459,8.882
							c0.288-0.253,3.445-2.931,6.595-0.993c3.232,1.986-3.712,7.704-4.068,7.991c0.356-0.205,7.108-4.143,9.662-0.705
							c2.623,3.54-4.567,7.868-4.567,7.868S376.771,300.498,376.428,303.114z"/>
						<path style="fill:#5C8951;" d="M349.468,303.114h-14.531c0,0-4.615-1.719-4.389-4.91c0.226-3.116,7.046-0.924,7.409-0.808
							c-0.356-0.151-6.779-3.02-4.896-7.211c1.897-4.211,8.163,0.575,8.436,0.788c-0.151-0.226-3.369-5.15-1.082-8.676
							c2.349-3.609,5.999,0.753,5.999,0.753s-3.225-10.984,3.26-11.429c-0.928,2.93-1.559,8.538,1.778,17.476
							c0.167,0.447-0.188,0.927-0.661,0.865c-1.693-0.224-4.456,0.032-1.155,5.175c0.276,0.43-0.026,1.004-0.536,0.99
							C347.019,296.068,343.719,296.77,349.468,303.114z"/>
					</g>
					<g>
						<path style="fill:#80AA74;" d="M175.131,303.114h-43.76c0,0-4.868-1.813-4.629-5.178c0.238-3.286,7.432-0.975,7.814-0.852
							c-0.376-0.159-7.15-3.185-5.164-7.605c2.001-4.442,8.609,0.607,8.898,0.831c-0.159-0.238-3.553-5.431-1.141-9.151
							c2.477-3.806,6.327,0.795,6.327,0.795s-3.402-11.585,3.438-12.054c0.21-0.014,0.426-0.022,0.657-0.014
							c7.699,0.246,7.583,11.39,7.583,11.39s4.333-7.172,8.421-4.644c1.156,0.714,1.536,1.774,1.484,2.926
							c-0.095,2.13,0.975,4.215,2.982,4.935c0.315,0.113,0.633,0.264,0.95,0.459c0.746,0.458,0.978,1.105,0.882,1.838
							c-0.267,2.033,0.85,4.047,2.853,4.486c0.847,0.185,1.603,0.603,2.166,1.361c0.701,0.946,0.737,1.946,0.401,2.911
							c-0.787,2.258-0.733,4.619-0.186,6.946C175.151,302.677,175.161,302.884,175.131,303.114z"/>
						<path style="fill:#5C8951;" d="M146.697,303.114h-15.326c0,0-4.868-1.813-4.629-5.178c0.238-3.286,7.432-0.975,7.814-0.852
							c-0.376-0.159-7.15-3.185-5.164-7.605c2.001-4.442,8.609,0.607,8.898,0.831c-0.159-0.238-3.553-5.431-1.141-9.151
							c2.477-3.806,6.327,0.795,6.327,0.795s-3.402-11.585,3.438-12.054c-0.946,2.986-1.599,8.607,1.532,17.485
							c0.302,0.855-0.297,1.794-1.204,1.802c-1.547,0.015-3.096,0.782-0.919,4.605c0.479,0.841-0.079,1.877-1.04,1.996
							C143.29,296.033,141.533,297.416,146.697,303.114z"/>
					</g>
					<g>
						<path style="fill:#80AA74;" d="M515.802,303.114H442.64c-0.792-6.514,10.839-3.057,11.398-2.889
							c-0.419-0.158-7.95-3.15-5.806-7.68c2.134-4.502,10.587-2.144,11.156-1.985c-0.652-0.336-11.911-6.142-6.03-13.039
							c5.89-6.916,11.79,1.659,12.107,2.134c-0.289-0.559-8.64-16.888,5.592-21.678c0.158-0.046,0.317-0.102,0.475-0.149
							c15.145-4.66,15.145,17.531,15.145,17.531s6.058-12.172,12.349-7.279c6.151,4.781,3.393,17.904,3.271,18.5
							c0.28-0.429,6.17-9.506,11.175-3.616c5.126,6.039-4.893,15.173-4.893,15.173C518.598,296.739,515.802,303.114,515.802,303.114
							z"/>
						<path style="fill:#5C8951;" d="M471.056,303.114H442.64c-0.792-6.514,10.839-3.057,11.398-2.889
							c-0.419-0.158-7.95-3.15-5.806-7.68c2.134-4.502,10.587-2.144,11.156-1.985c-0.652-0.336-11.911-6.142-6.03-13.039
							c5.89-6.916,11.79,1.659,12.107,2.134c-0.289-0.559-8.64-16.888,5.592-21.678c-2.156,5.471-0.787,13.56,1.046,20.114
							c0.869,3.107-0.918,6.053-3.793,7.518c-0.097,0.049-0.188,0.109-0.273,0.18c-1.03,0.856-0.684,2.445,0.391,4.144
							c1.324,2.093,1.408,4.882-0.066,6.872C467.468,298.009,467.709,299.96,471.056,303.114z"/>
					</g>
					<g>
						<g>
							<path style="fill:#FFAB2F;" d="M64.311,379.506h-91.662c2.442-12.284,18.295-12.88,18.295-12.88
								c-15.844-6.757-23.999-18.174-13.747-23.654c10.252-5.471,21.669,9.217,21.669,9.217s-16.31-41.25-2.33-44.046
								c13.15-2.628,16.403,22.284,16.748,25.266c-1.109-13.197,1.063-37.373,14.707-35.556c8.411,1.12,6.966,14.748,4.578,25.154
								c-0.437,1.907,2.011,3.054,3.202,1.502c4.733-6.164,11.103-11.767,15.985-6.115c5.122,5.931,0.322,16.926-4.636,25.145
								c-1.61,2.669,1.033,5.863,3.95,4.763c5.114-1.927,10.154-2.575,10.705,2.013c0.619,5.143-2.378,9.991-5.294,13.385
								c-1.863,2.168-1.047,5.485,1.536,6.709C65.203,373.814,64.311,379.506,64.311,379.506z"/>
							<path style="fill:#F88F00;" d="M19.603,354.967c0,0-9.786-11.874-12.582-2.777c-1.855,6.03,5.396,19.153,10.504,27.317
								h-44.876c2.442-12.284,18.295-12.88,18.295-12.88c-15.844-6.757-23.999-18.174-13.747-23.654
								c10.252-5.471,21.669,9.217,21.669,9.217s-16.31-41.25-2.33-44.046c13.15-2.628,16.403,22.284,16.748,25.266
								c-1.109-13.197,1.063-37.373,14.707-35.556C15.875,310.165,19.603,354.967,19.603,354.967z"/>
						</g>
						<g>
							<path style="fill:#FFAB2F;" d="M90.72,379.506H33.244c-0.806-4.531,1-7.061,3.31-8.472c2.564-1.567,3.07-5.046,1.236-7.426
								c-2.537-3.292-4.338-7.444-1.284-10.803c2.556-2.816,5.793-2.324,8.68-0.815c2.993,1.564,6.583-0.559,6.647-3.935
								c0.152-8.098,2.106-18.2,10.89-18.345c0.261-0.009,0.531-0.009,0.811,0.009c9.78,0.502,10.436,11.968,9.55,20.516
								c-0.225,2.17,2.452,3.424,3.952,1.84c3.552-3.751,8.139-6.765,11.708-2.84c4.063,4.47,1.417,11.586-1.367,16.585
								c-1.375,2.469-0.242,5.485,2.313,6.692C94.124,374.608,90.72,379.506,90.72,379.506z"/>
							<path style="fill:#F88F00;" d="M55.75,365.875c-1.009,2.45,0.461,4.908,1.976,6.608c0.658,0.738,0.121,1.902-0.867,1.887
								c-3.126-0.048-4.859,2.505-2.984,5.137H33.244c-0.806-4.532,1-7.061,3.311-8.473c2.564-1.567,3.07-5.045,1.236-7.425
								c-2.537-3.292-4.338-7.445-1.285-10.804c2.557-2.817,5.795-2.324,8.683-0.814c2.991,1.564,6.581-0.559,6.644-3.933
								c0.151-8.098,2.105-18.203,10.89-18.348c-1.825,5.439-4.624,17.185-2.141,33.422c0.144,0.942-0.821,1.648-1.678,1.23
								C57.823,363.835,56.578,363.864,55.75,365.875z"/>
							<g style="opacity:0.4;">
								<path style="fill:#F88F00;" d="M51.814,351.991c2.991,1.564,6.581-0.559,6.644-3.933c0.086-4.588,0.751-9.819,2.909-13.519
									c0.452-1.933,0.93-3.559,1.356-4.829c-8.786,0.145-10.739,10.25-10.89,18.348c-0.025,1.343-0.614,2.481-1.496,3.274
									C50.836,351.517,51.33,351.737,51.814,351.991z"/>
								<path style="fill:#F88F00;" d="M43.18,371.033c2.564-1.567,3.07-5.045,1.236-7.425c-2.537-3.292-4.338-7.445-1.285-10.803
									c0.434-0.478,0.889-0.854,1.358-1.153c-2.703-1.226-5.631-1.438-7.983,1.153c-3.054,3.359-1.253,7.511,1.285,10.803
									c1.834,2.38,1.328,5.859-1.236,7.425c-2.311,1.412-4.116,3.941-3.311,8.473h6.625
									C39.063,374.975,40.869,372.445,43.18,371.033z"/>
							</g>
						</g>
						<g>
							<path style="fill:#FFAB2F;" d="M511.593,379.506h-57.477c-1.864-10.485,10.252-10.252,10.252-10.252
								s-13.048-9.786-6.99-16.45c6.058-6.673,15.937,5.228,15.937,5.228s-4.408-28.081,10.28-28.323
								c0.261-0.009,0.531-0.009,0.811,0.009c15.425,0.792,8.155,28.855,7.931,29.731c0.41-0.69,10.616-17.54,17.279-10.215
								c6.794,7.475-5.173,22.349-5.173,22.349C517.259,371.351,511.593,379.506,511.593,379.506z"/>
							<path style="fill:#F88F00;" d="M473.754,364.753c-3.476,2.945,6.729,9.572,7.279,9.935
								c-0.513-0.093-11.137-2.023-9.199,4.818h-17.717c-1.864-10.485,10.252-10.252,10.252-10.252s-13.048-9.786-6.99-16.45
								c6.058-6.673,15.937,5.228,15.937,5.228s-4.408-28.081,10.28-28.323c-1.939,5.778-4.977,18.677-1.612,36.516
								C481.983,366.225,477.323,361.724,473.754,364.753z"/>
						</g>
					</g>
				</g>
				<g>
					<g>
						<g>
							<path style="fill:#0C1A3C;" d="M524.008,530.203c0,0-162.808,5.105-186.435-10.86
								c-15.879-10.726-22.669-38.767-10.477-64.146l4.664-8.15l4.501-5.995l0.057-0.077l17.928-23.942l8.322,3.697
								c48.517-24.89,104.619-16.309,104.619-16.309l56.82,97.369V530.203z"/>
							<path style="fill:#346E94;" d="M524.008,376.011c0,0-93.854-8.939-143.016,17.877s-45.65,81.085-22.027,97.047
								c23.623,15.962,165.043,10.854,165.043,10.854V376.011z"/>
							<path style="opacity:0.4;fill:#346E94;" d="M387.08,403.82c41.651-22.719,115.372-19.774,136.929-18.344v-9.465
								c0,0-93.854-8.939-143.016,17.877c-44.307,24.168-45.826,70.63-28.402,91.256C342.497,462.003,348.911,424.639,387.08,403.82
								z"/>
						</g>
					</g>
					<g>
						<g>
							<path style="fill:#346E94;" d="M249.181,500.197h-55.508c-1.788,0-3.191-1.564-2.977-3.339
								c0.438-3.627,2.941-5.477,5.435-6.42c2.03-0.767,2.651-3.294,1.173-4.883c-3.369-3.622-6.914-9.078-3.055-13.323
								c3.38-3.724,7.896-1.925,11.379,0.568c1.988,1.423,4.762-0.083,4.691-2.527c-0.254-8.731,1.054-22.058,11.388-22.229
								c0.273-0.01,0.556-0.01,0.849,0.01c9.14,0.469,10.671,10.081,10.236,18.506c-0.172,3.328,3.186,5.561,6.281,4.326
								c2.208-0.881,4.632-0.669,6.968,1.899c3.656,4.023,2.896,8.958,1.292,12.806c-1.144,2.745-0.071,6.01,2.618,7.28
								c2.761,1.305,2.62,3.649,2.052,5.334C251.597,499.406,250.448,500.197,249.181,500.197z"/>
							<path style="fill:#0C1A3C;" d="M211.4,484.745c-2.005,1.699,0.335,4.566,2.939,6.864c1.243,1.097,0.611,3.103-1.031,3.332
								c-2.622,0.366-4.943,1.644-3.919,5.256h-18.555c-0.854-4.804,1.094-7.46,3.556-8.927c2.62-1.561,3.373-5.001,1.471-7.384
								c-2.793-3.499-4.915-8.019-1.611-11.653c3.494-3.848,8.201-1.798,11.726,0.821c1.844,1.37,4.444,0.01,4.36-2.286
								c-0.317-8.712,0.841-22.549,11.372-22.723c-1.81,5.394-4.534,16.713-2.61,32.339c0.259,2.103-1.65,3.763-3.731,3.365
								C214.07,483.5,212.669,483.668,211.4,484.745z"/>
						</g>
						<g>
							<path style="fill:#346E94;" d="M320.158,500H227.96c1.241-6.243,5.926-9.484,10.257-11.164
								c2.48-0.961,2.818-4.307,0.566-5.721c-10.657-6.693-14.761-15.313-6.249-19.863c6.243-3.332,12.917,0.77,17.21,4.525
								c1.108,0.969,2.784-0.169,2.314-1.564c-3.946-11.723-10.684-35.871-0.073-37.994c13.227-2.644,16.499,22.415,16.846,25.414
								c-1.116-13.274,1.069-37.592,14.793-35.764c8.988,1.197,6.786,16.592,4.147,27.217c-0.375,1.51,1.609,2.427,2.516,1.163
								c4.836-6.741,11.919-13.882,17.242-7.719c5.291,6.126,0.057,17.624-5.066,25.952c-1.532,2.49,1.008,5.46,3.725,4.382
								c5.359-2.126,10.841-3.036,11.418,1.773c0.678,5.63-2.952,10.908-6.098,14.332c-1.599,1.74-0.964,4.535,1.232,5.408
								C321.142,493.718,320.158,500,320.158,500z"/>
							<path style="fill:#0C1A3C;" d="M274.666,463.077c0.056,3.946-3.604,7.126-7.426,6.146c-1.943-0.498-3.741,0.155-4.707,3.3
								c-1.866,6.065,5.428,19.265,10.565,27.477H227.96c1.241-6.242,5.925-9.484,10.256-11.164c2.48-0.962,2.819-4.307,0.566-5.722
								c-10.656-6.693-14.76-15.312-6.247-19.862c6.242-3.331,12.914,0.768,17.207,4.522c1.109,0.97,2.786-0.169,2.316-1.565
								c-3.946-11.725-10.681-35.868-0.071-37.99c13.227-2.644,16.499,22.415,16.846,25.414
								c-1.116-13.274,1.069-37.592,14.793-35.764C275.52,426.106,274.464,448.801,274.666,463.077z"/>
						</g>
						<g>
							<path style="fill:#346E94;" d="M341.045,500H280.85c-0.976-5.491,1.708-8.175,4.636-9.486
								c2.275-1.019,2.949-3.88,1.298-5.747c-3.188-3.606-6.173-8.711-2.518-12.732c4.24-4.671,10.268-0.653,13.8,2.526
								c0.984,0.885,2.543,0.114,2.443-1.206c-0.617-8.118-0.533-25.314,11.215-25.508c0.273-0.01,0.556-0.01,0.849,0.01
								c11.955,0.614,10.893,16.87,9.438,25.651c-0.194,1.174,1.312,1.834,2.04,0.892c3.793-4.905,10.207-11.292,14.925-6.104
								c4.865,5.352,0.545,14.327-2.674,19.469c-1.052,1.681-0.088,3.878,1.848,4.309C345.426,493.696,341.045,500,341.045,500z"/>
							<path style="fill:#0C1A3C;" d="M301.416,484.548c-2.136,1.809,0.659,4.945,3.451,7.306c1.102,0.932,0.523,2.695-0.914,2.82
								c-2.861,0.249-5.652,1.428-4.547,5.326H280.85c-0.976-5.491,1.708-8.175,4.636-9.486c2.275-1.019,2.949-3.88,1.298-5.747
								c-3.188-3.606-6.173-8.711-2.518-12.732c4.239-4.669,10.264-0.656,13.796,2.523c0.985,0.887,2.546,0.114,2.446-1.207
								c-0.616-8.12-0.53-25.31,11.215-25.504c-1.905,5.679-4.825,17.927-2.265,34.854c0.178,1.178-1.029,2.072-2.096,1.541
								C305.644,483.389,303.374,482.887,301.416,484.548z"/>
						</g>
					</g>
				</g>
			</g>
		</g>
		<g>
			<g>
				<g>
					<path style="fill:#5C8951;" d="M265.668,341.362c-22.546,0-28.909,5.454-13.818,6.364c15.091,0.909-2.909,5.636,22.909,6
						c25.818,0.364,32.727,0.909,39.999-2.182c7.273-3.091,12.545-1.636,20.545-3.454c8-1.818,3.273-3.818-14.363-5.091
						C303.304,341.726,272.577,341.362,265.668,341.362z"/>
					<g>
						<path style="fill:#0C1A3C;" d="M266.055,305.067c0,0,5.932,21.954,6.204,23.318c0.273,1.364-3.818,13.227-3.818,13.227
							s-4.773,0.341-6.341,1.227c-1.568,0.886-0.205,4.227-0.205,4.227s10.023,0,10.227-0.068
							c0.204-0.068,6.477-16.091,7.023-20.181c0.545-4.091,0.341-17.659,0.341-17.659S272.941,301.795,266.055,305.067z"/>
						<path style="fill:#0C1A3C;" d="M297.444,300.078c0,0-1.338,7.978,4.598,12.66c4.221,3.329,8.123,7.251,10.026,9.239
							c0.74,0.773,0.926,1.921,0.474,2.891l-7.19,15.445c0,0-3.082-0.39-4.521-0.325c-1.439,0.065-1.893,1.398-1.893,1.398
							s-2.86-0.033-1.28,3.252c0,0,9.773,0.098,10.5,0c0.727-0.098,13.486-22.144,13.893-23.358
							c0.407-1.214-5.706-12.096-5.706-12.096s3.147-9.538-0.335-14.221C312.528,290.279,298.375,291.667,297.444,300.078z"/>
						<path style="fill:#0C1A3C;" d="M320.531,292.305c0,0,6.936-5.31,9.915-13.4c0.261-0.708,1.335-0.423,1.212,0.322
							c-0.726,4.399-3.026,10.287-9.587,15.137L320.531,292.305z"/>
						<path style="fill:#FDF3F1;" d="M327.071,299.545c0,5.051-8.858,10.091-11.313,11.182c-2.454,1.091-10.636-0.273-16.505,0.131
							c-5.858,0.415-11.454,5.051-17.858,5.596c-6.403,0.545-16.221-9-19.091-15.545c-2.869-6.545-4.091-15.142-7.091-23.04
							c-3-7.92,9.676-8.182,9.676-8.182s6.687,12.404,12.284,16.222c0.764,0.524,1.636,1.004,2.618,1.451
							c1.669,0.786,3.6,1.451,5.662,1.985c5.564,1.462,12.011,2.018,16.396,1.331c6.96-1.091,11.727-3.131,16.091-1.767
							C322.304,290.272,327.071,294.494,327.071,299.545z"/>
						<path style="opacity:0.3;fill:#0C1A3C;" d="M281.396,316.454c6.404-0.545,12-5.182,17.858-5.596
							c3.657-0.251,8.21,0.183,11.717,0.282c-15.804-7.491-21.345,4.565-36.213-0.631c-1.315-0.459-2.716,0.483-3.005,1.846l0,0
							C275.035,314.946,278.552,316.696,281.396,316.454z"/>
						<path style="opacity:0.3;fill:#0C1A3C;" d="M258.29,287.929c7.738-3.554,6.968-9.979,6.968-9.979l-9.927,0.25
							C256.523,281.399,257.437,284.697,258.29,287.929z"/>
						<path style="fill:#0C1A3C;" d="M281.853,299.185c-8.847-2.585-7.102-11.094-2.062-11.825c1.669,0.786,3.6,1.451,5.662,1.985
							C294.508,295.53,292.163,302.185,281.853,299.185z"/>
						<path style="fill:#FDF3F1;" d="M263.259,298.59l-0.818,15.818c0,0-14.863,6.682-16.363,7.363s-5.182,9-1.977,10.363
							c0,0,0.955,1.091,3.409,0.682c0,0,1.841,0.545,2.591-1.023c0.75-1.568,1.023-7.295,1.091-7.5
							c0.068-0.205,15.886-2.795,17.863-3.682c1.977-0.886,5.659-9.682,6.818-14.182C277.032,301.931,267.964,297.84,263.259,298.59
							z"/>
						<path style="fill:#0C1A3C;" d="M269.487,303.272c-3.525,2.06-2.818,7.909,4.364,7.454S275.396,299.818,269.487,303.272z"/>
						<path style="fill:#FDF3F1;" d="M307.577,300.454c0,0-0.455,8.363,6,13.273c6.454,4.909,12.409,11.045,12.409,11.045
							l-6.045,17.863c0,0-3.125-0.409-4.557-0.341s-1.739,1.466-1.739,1.466s-2.864-0.034-0.921,3.409c0,0,9.784,0.102,10.5,0
							c0.716-0.102,11.034-23.216,11.307-24.488c0.273-1.273-7.045-12.682-7.045-12.682s2.091-10-1.909-14.909
							S307.577,291.636,307.577,300.454z"/>
						<path style="fill:#0C1A3C;" d="M316.213,300.056c-8.227,2.657-4.909,15.818,4.318,13.272
							C329.758,310.783,324.94,297.237,316.213,300.056z"/>
						<path style="fill:#0C1A3C;" d="M305.034,302.808c-4.456-0.12-1.923,4.454,0.629,3.454S308.397,302.899,305.034,302.808z"/>
						<g>
							<path style="fill:#0C1A3C;" d="M257.01,264.514c0.25-1.93,1.181-5.882,4.647-8.554c0.372-0.287,0.922-0.056,0.958,0.413
								c0.137,1.806,0.205,5.721-1.304,9.143c-0.23,0.521-0.775,0.829-1.335,0.723l-2.002-0.38
								C257.344,265.74,256.928,265.15,257.01,264.514z"/>
							<g>
								<path style="fill:#FDF3F1;" d="M236.805,266.613c-1.638,0.051-0.955,3.341-0.682,4.295c0.273,0.955,1.023,1.568,1.023,1.568
									s0.341,3.954,1.091,4.568c0.75,0.614,10.432,4.841,17.318,4.636c6.886-0.205,10.091-7.568,9.954-10.636
									c-0.136-3.068-2.454-6.682-6.341-7.091c-3.886-0.409-6.273,1.159-8.454,2.932
									C248.532,268.659,238.987,266.545,236.805,266.613z"/>
								<path style="fill:#0C1A3C;" d="M258.15,273.149c-2.871,2.25-1.859,8.228,4.869,6.137S264.009,268.558,258.15,273.149z"/>
								<path style="fill:#0C1A3C;" d="M237.146,272.477c0,0,0.095,1.094,0.294,2.22c0.01,0.06,0.063,0.083,0.11,0.12
									c1.22,0.939,3.554,1.536,5.761,0.873c0.686-0.206,0.943-1.123,0.227-1.146C238.938,274.396,237.146,272.477,237.146,272.477
									z"/>
							</g>
							<path style="fill:#0C1A3C;" d="M261.19,263.369c1.721-2.13,4.786-4.961,9.327-5.757c0.459-0.08,0.839,0.357,0.668,0.79
								c-0.711,1.799-2.552,5.851-5.722,8.917c-1.033,0.999-2.646,1.088-3.789,0.218l0,0
								C260.358,266.536,260.151,264.655,261.19,263.369z"/>
						</g>
					</g>
				</g>
				<g>
					<path style="fill:#5C8951;" d="M376.861,336.388c-32.796,0-36.895,3.69-28.901,6.764c7.994,3.075,38.945,2.46,42.429,2.665
						c3.485,0.205-15.168,3.484,7.174,4.099c22.342,0.615,51.243,0.41,52.473-2.255c1.23-2.665,4.919-2.665,12.913-4.509
						c7.994-1.845,14.963-6.559-13.528-7.789C420.931,334.133,376.861,336.388,376.861,336.388z"/>
					<g>
						<g>
							<g>
								<g>
									<polygon style="fill:#FF764F;" points="388.485,318.454 388.667,324.817 393.939,326.726 398.848,325.817 399.03,318.726 
																			"/>
									<g>
										<path style="fill:#FFE9E3;" d="M400.663,338.632c-0.011,1.811-0.087,2.913-0.087,2.913h-33.818
											c0-1.146-0.011-2.105,0.011-2.913c0.055-1.833,0.262-2.88,1.08-3.447c1.178-0.818,4.996-0.916,10.003-3.371
											c4.996-2.455,10.266-8.182,10.266-8.182s2.193,0.818,5.727,1.091c3.458,0.273,5.552-0.087,5.552-0.087
											C400.499,330.079,400.674,335.446,400.663,338.632z"/>
										<g>
											<path style="fill:#346E94;" d="M389.841,341.544h-4.222l-4.884-6.738c-0.589-0.812-0.357-1.954,0.502-2.473l0,0
												c0.763-0.46,1.751-0.259,2.274,0.462L389.841,341.544z"/>
											<path style="fill:#346E94;" d="M397.815,341.544h-4.211l-7.323-10.125c-0.585-0.81-0.353-1.947,0.503-2.462v0
												c0.76-0.458,1.744-0.257,2.263,0.462L397.815,341.544z"/>
										</g>
										<path style="fill:#0C1A3C;" d="M400.663,338.632c-0.011,1.811-0.087,2.913-0.087,2.913h-33.818
											c0-1.146-0.011-2.105,0.011-2.913H400.663z"/>
									</g>
								</g>
								<g>
									<path style="fill:#AB1027;" d="M393.848,196.183c0,0-12.182,41.999-12.909,70.726c0,0,5.273,39.818,5.091,52.545
										c0,0,11.091,2.182,17.454-0.364c0,0,1.455-29.454-0.909-52.727c0,0,8.545-29.999,12.363-39.999
										c3.818-10,5.273-27.636,5.273-27.636L393.848,196.183z"/>
									<path style="fill:none;stroke:#CB1C3E;stroke-linecap:round;stroke-linejoin:round;stroke-miterlimit:10;" d="
										M407.218,223.984c0,0-10.137,40.925-10.026,42.562c0.111,1.636,1.727,48.216,1.838,53.579"/>
									<path style="fill:none;stroke:#CB1C3E;stroke-linecap:round;stroke-linejoin:round;stroke-miterlimit:10;" d="
										M404.757,199.728c0,0,0.636,17.545,1,21.454c0.364,3.909,5.727,4.727,5.727,4.727"/>
									<path style="opacity:0.3;fill:#0C1A3C;" d="M392.792,199.98c0.229,7.425,1.704,42.12,9.783,66.384
										c0,0,8.545-29.999,12.364-39.999c3.818-10,5.272-27.636,5.272-27.636l-14.775-1.426c-4.105-0.396-8.249-0.02-12.215,1.11
										l0,0C393.095,198.869,392.951,199.395,392.792,199.98z"/>
								</g>
							</g>
							<g>
								<g>
									<polygon style="fill:#FF764F;" points="442.711,316.681 444.166,324.544 449.438,326.453 454.347,325.544 453.257,316.954 
																			"/>
									<g>
										<path style="fill:#FFE9E3;" d="M456.162,338.359c-0.011,1.811-0.087,2.913-0.087,2.913h-33.818
											c0-1.146-0.011-2.105,0.011-2.913c0.055-1.833,0.262-2.88,1.08-3.447c1.178-0.818,4.996-0.916,10.003-3.371
											c4.996-2.454,10.265-8.182,10.265-8.182s2.193,0.818,5.727,1.091c3.458,0.273,5.552-0.087,5.552-0.087
											C455.998,329.806,456.173,335.173,456.162,338.359z"/>
										<g>
											<path style="fill:#346E94;" d="M445.34,341.271h-4.222l-4.884-6.738c-0.589-0.812-0.357-1.954,0.502-2.472l0,0
												c0.763-0.461,1.751-0.26,2.274,0.462L445.34,341.271z"/>
											<path style="fill:#346E94;" d="M453.315,341.271h-4.211l-7.323-10.125c-0.586-0.81-0.353-1.947,0.503-2.462l0,0
												c0.76-0.458,1.744-0.257,2.263,0.462L453.315,341.271z"/>
										</g>
										<path style="fill:#0C1A3C;" d="M456.162,338.359c-0.011,1.811-0.087,2.913-0.087,2.913h-33.818
											c0-1.146-0.011-2.105,0.011-2.913H456.162z"/>
									</g>
								</g>
								<path style="fill:#CB1C3E;" d="M408.393,200.183c0,0,0,12.545,1.636,29.454c1.636,16.909,19.272,61.999,22,70.181
									c2.727,8.182,5.091,19.454,5.091,19.454s11.454,2.546,18.545-1.091c0,0-5.454-29.09-10-46.908
									c-4.545-17.818-7.818-47.636-7.818-47.636s1.455-16.182,1.091-24.909L408.393,200.183z"/>
								<path style="fill:none;stroke:#AB1027;stroke-linecap:round;stroke-linejoin:round;stroke-miterlimit:10;" d="
									M431.589,200.696c0,0,0.265,22.077,0.44,23.305c3.671,25.767,17.085,89.487,18.585,95.759"/>
							</g>
						</g>
						<g>
							<path style="fill:#346E94;" d="M405.215,144.498c-6.142,14.185-13.365,25.099-15.956,28.09
								c-2.591,3.001-15.424,9.917-18.547,10.233c-3.542,0.354-6.067-2.153-7.754-4.762c-0.913-1.407-1.575-2.843-2.022-3.877
								c0,0-2.181-5.089,3.187-7.27c5.359-2.181,13.999-9.73,14.726-10.187c0.727-0.447,19.274-29.544,20.905-31.455
								c1.64-1.901,4.912-2.908,7.549-1.631c1.193,0.569,2.125,1.985,2.237,4.688C409.67,131.589,408.58,136.725,405.215,144.498z"
								/>
							<path style="opacity:0.3;fill:#0C1A3C;" d="M405.215,144.498c-6.142,14.185-13.365,25.099-15.956,28.09
								c-2.591,3.001-15.424,9.917-18.547,10.233c-3.542,0.354-6.067-2.153-7.754-4.762c31.539-16.152,38.911-51.782,38.911-51.782
								h1.603c0,0,2.489,0.801,6.067,2.05C409.67,131.589,408.58,136.725,405.215,144.498z"/>
							<path style="fill:#FF764F;" d="M345.849,178.637c0,0,8.273-2.091,9.636-2.182c1.364-0.091,7.091,2.454,7.454,6.363
								c0.364,3.909-10,6.818-10,6.818l-8.909-6.454l-0.273-3.364L345.849,178.637z"/>
							<path style="fill:none;stroke:#0C1A3C;stroke-linecap:round;stroke-linejoin:round;stroke-miterlimit:10;" d="
								M273.083,282.167c0,0,68.584-102.529,69.311-102.893c0.727-0.364,11.605,3.143,15.272,12.909
								c2.35,6.259-17.636,7.818-14.909-12"/>
							<path style="fill:#FFAB2F;" d="M259.387,290.549l11.029-9.93c0.712-0.641,1.824-0.52,2.382,0.26l2.463,3.447l-14.465,13.051
								l-1.844-5.086C258.729,291.676,258.901,290.987,259.387,290.549z"/>
							<path style="fill:#FFAD91;" d="M343.395,178.001c-3.187,3.368-0.636,8.363,4.727,11.454c5.364,3.091,8.363-1.364,8.273-3.182
								c-0.091-1.818-3.918-3.863-5.727-5.091c-1.175-0.797-2.334-0.433-2.334-0.433s-1.515-0.264-0.939-1.113
								C349.162,177.035,345.958,175.292,343.395,178.001z"/>
							<path style="fill:#FF764F;" d="M349.494,182.346l-0.001-0.005c-1.689-1.042-3.691-3.693-4.097-5.602
								c-0.646,0.17-1.344,0.568-2.001,1.262c-0.004,0.004-0.008,0.009-0.012,0.013c-0.692,0.736-0.708,1.896-0.111,2.71
								C346.029,184.482,349.494,182.346,349.494,182.346z"/>
							<path style="fill:#FFAD91;" d="M356.667,175.365c0,0-6.167-2.115-10.454-0.636c-2.784,0.96,1.545,7.273,4.091,8
								c1.557,0.445,1.517-1.657,1.25-3.357c-0.101-0.646,1.071-0.111,1.626,0.691c2.48,3.583,4.445,2.726,6.578,1.12
								C362.326,179.25,360.94,176.456,356.667,175.365z"/>
							<path style="fill:#F88F00;" d="M356.394,175.183c0,0,5.101,3.426,6.106,8.466c0.128,0.642,0.898,0.918,1.43,0.537
								l3.434-2.461c0.485-0.348,0.731-0.944,0.613-1.529c-0.359-1.789-1.588-5.573-5.694-7.603
								c-0.437-0.216-0.959-0.179-1.384,0.06L356.394,175.183z"/>
							<path style="opacity:0.2;fill:#0C1A3C;" d="M367.978,180.197c-0.192-0.955-0.637-2.478-1.629-4
								c-1.35,2.991-5.471,3.618-5.471,3.618l-0.001,0.006c0.728,1.123,1.34,2.409,1.624,3.829c0.128,0.642,0.898,0.918,1.43,0.537
								l3.434-2.461C367.849,181.378,368.095,180.782,367.978,180.197z"/>
						</g>
						<g>
							<path style="fill:#0C1A3C;" d="M447.668,178.544c-0.186,3.635-2.181,19.274-7.456,22.005
								c-5.275,2.721-44.913,0.363-47.458-2.004c-1.072-0.988-2.274-2.498-3.225-4.297c-0.009,0-0.009,0-0.009,0
								c-1.323-2.47-2.199-5.48-1.668-8.425c0.904-5.098,6.179-17.279,5.993-30.365c-0.177-13.095,4.185-28.547,7.092-31.455
								c2.908-2.908,2.544-2.367,19.097-4.548c0,0,21.818-0.363,23.636,3.821c0.065,0.149,0.13,0.317,0.186,0.512
								c1.696,5.415,2.535,29.349,2.535,35.668C446.391,165.999,447.845,174.909,447.668,178.544z"/>
							<path style="opacity:0.6;fill:#0C1A3C;" d="M447.668,178.544c-0.186,3.635-2.181,19.274-7.456,22.005
								c-5.275,2.721-44.913,0.363-47.458-2.004c-1.072-0.988-2.274-2.498-3.225-4.297c37.401,3.98,51.12-16.319,44.867-35.118
								c-6.44-19.339,0.382-32.107,1.305-32.853c1.883-1.519,4.828-2.246,8.155-2.489c1.696,5.415,2.535,29.349,2.535,35.668
								C446.391,165.999,447.845,174.909,447.668,178.544z"/>
						</g>
						<g>
							<g>
								<path style="fill:#F88F00;" d="M427.302,175.456c0,0-3.636,2.182-4.364,2.727c-0.727,0.545,1,5.636,3.727,7.545
									c2.727,1.909,4.545,0.818,7.727-2L427.302,175.456z"/>
							</g>
							<g>
								<path style="fill:#346E94;" d="M463.437,164.275c-2.321,5.452-22.638,20.047-27.68,20.318
									c-3.915,0.205-7.987-4.176-9.357-7.987c-0.41-1.109-0.578-2.172-0.457-3.057c0.54-3.952,17.177-14.726,16.906-16.506
									c-0.27-1.771-8.863-15.676-10.914-25.089c-2.041-9.404,5.732-11.864,12.545-8.994c0,0,2.591,2.311,5.462,6.813
									c1.967,3.094,8.677,15.611,11.948,24.922C463.391,158.962,464.164,162.56,463.437,164.275z"/>
								<path style="opacity:0.3;fill:#0C1A3C;" d="M463.437,164.275c-2.321,5.452-22.638,20.047-27.68,20.318
									c-3.915,0.205-7.987-4.176-9.357-7.987c9.991,2.246,26.953-9.339,31.902-15.993c1.64-2.218,2.787-4.212,3.588-5.918
									C463.391,158.962,464.164,162.56,463.437,164.275z"/>
							</g>
						</g>
						<path style="fill:#346E94;" d="M422.355,176.122c0.826,2.904,3.07,8.619,8.343,11.007c0.92,0.417,1.186,1.595,0.525,2.358
							l-0.773,0.893c-0.435,0.503-1.143,0.658-1.752,0.394c-2.654-1.151-9.419-4.937-9.993-13.794
							c-0.041-0.63,0.291-1.227,0.862-1.496l0.689-0.325C421.103,174.76,422.099,175.221,422.355,176.122z"/>
						<path style="fill:none;stroke:#FFE9E3;stroke-linecap:round;stroke-linejoin:round;stroke-miterlimit:10;" d="
							M413.212,121.911c0,0-3.727,7.091-4.273,18.636c-0.546,11.545-0.046,17.454-3.864,30.681
							c-3.818,13.227-6.2,20.71-0.318,29.467"/>
						<g>
							<path style="fill:#346E94;" d="M409.456,120.332l0.522-7.194c0,0,4.894-4.279,12.754-4.184
								c7.86,0.095,9.848,1.883,9.848,1.883l-0.525,8.545c-0.056,0.903-0.544,1.726-1.322,2.188
								c-1.57,0.932-4.588,2.377-8.802,2.849c-4.872,0.545-9.602-1.493-11.582-2.496
								C409.756,121.623,409.408,120.995,409.456,120.332z"/>
							<path style="fill:#0C1A3C;" d="M430.289,110.643c0.679,0.199,0.754,1.13,0.123,1.45c-0.323,0.164-0.71,0.341-1.166,0.52
								c-2.142,0.848-5.815,1.736-11.471,1.449c-1.241-0.06-2.582-0.174-4.026-0.361c-1.017-0.131-1.223-1.519-0.281-1.926
								c1.185-0.513,2.706-1.057,4.479-1.439c1.544-0.336,3.282-0.55,5.146-0.519c3.046,0.06,5.038,0.314,6.332,0.608
								C429.757,110.497,430.043,110.57,430.289,110.643z"/>
							<g>
								<path style="fill:#FFAD91;" d="M429.43,110.428l-0.185,2.182c-2.138,0.851-5.815,1.735-11.465,1.451l-0.044-1.462
									l-0.404-11.924l11.891-2.269l0.044,2.782L429.43,110.428z"/>
								<path style="fill:#FF764F;" d="M427.568,104.486c-1.994,3.225-5.082,6.41-9.833,8.113l-0.404-11.924l11.891-2.269l0,0
									C429.256,100.549,428.695,102.663,427.568,104.486z"/>
							</g>
							<g>
								<path style="fill:#FFAD91;" d="M429.43,99.667c-2.182,5.782-10.047,8.35-14.225,7.074
									c-4.189-1.287-3.753-10.145-4.342-16.309c-0.403-4.331-1.124-9.545,0.862-12.851c0.829-1.385,2.138-2.444,4.134-2.956
									c5.64-1.451,12.633-0.448,13.996,5.105c0.087,0.338,0.164,0.687,0.229,1.058C431.186,86.395,431.469,94.223,429.43,99.667z"
									/>
								<path style="fill:#FF764F;" d="M430.084,80.788c-0.589,0.938-1.898,1.735-4.146,2.215
									c-10.451,2.225-14.225-3.905-14.225-3.905s-0.131-0.644,0.011-1.516c0.829-1.385,2.138-2.444,4.134-2.956
									c5.64-1.451,12.633-0.448,13.996,5.105C429.942,80.068,430.019,80.417,430.084,80.788z"/>
								<path style="fill:#5F110F;" d="M429.793,91.491l-0.529,1.674l-1.323-0.016c-0.574-0.007-1.03-0.481-1.012-1.055
									c0.042-1.339,0.097-3.516,0.023-3.699c-0.108-0.266-2.951-1.061-3.12-3.169c-0.023-0.287-0.34-2.438-0.34-2.438
									s-6.265,0.314-9.587-4.573c0,0-3.754,2.52-3.391,8.145c0,0-9.221-3.139-6.556-11.237s14.33-5.208,17.514-3.865
									c0,0,7.129-2.465,11.489,0.168S439.985,84.273,429.793,91.491z"/>
								<path style="fill:#FFAD91;" d="M428.721,91.417c-0.133-1.694,0.495-3.401,1.81-4.477c0.847-0.693,1.955-1.144,3.294-0.72
									c2.949,0.933,2.502,8.376-2.468,9.701c-1.168,0.311-2.326-0.566-2.421-1.772L428.721,91.417z"/>
							</g>
						</g>
					</g>
				</g>
			</g>
			<g>
				<g>
					<path style="opacity:0.2;fill:#326C92;" d="M0,454.971v21.964c12.792,6.799,36.54,12.278,71.592,12.278
						c61.06,0,83.082-12.012,66.065-15.616c-17.017-3.604-4.204-0.4,35.035-4.605c39.239-4.204,35.035-18.418-36.836-22.422
						c-71.871-4.004-44.844-8.608-79.078-10.811c-36.254-2.332-50.65,9.757-38.638,14.488C26.677,453.611,11.55,452.085,0,454.971z"
						/>
					<g>
						<g>
							<g>
								<g>
									<path style="fill:#0C1A3C;" d="M171.759,458.839c-0.06,2.535-0.168,4.949-0.168,4.949h-49.749
										c-0.012-1.67,0-3.327,0.06-4.949c0.384-13.345,2.643-24.78,2.643-24.78l16.216,2.246c0,0,5.061,7.407,10.61,9.966
										c5.549,2.558,19.764,5.806,20.22,6.851C171.807,453.65,171.807,456.317,171.759,458.839z"/>
									<path style="opacity:0.6;fill:#0C1A3C;" d="M140.994,436.636l-0.015-0.021l-7.814-1.362l-8.621-1.194
										c0,0-2.258,11.436-2.643,24.781c10.26-1.099,16.038-5.943,19.279-10.754C143.527,444.605,143.445,440.043,140.994,436.636z
										"/>
									<path style="fill:#346E94;" d="M147.917,443.518c0,0-3.553,4.454-4.254,5.155c-0.701,0.701,3.103,2.953,5.405,3.904
										c2.302,0.951,2.853,1.151,3.403,0.651c0.551-0.5,3.654-5.706,3.654-5.706S150.02,445.12,147.917,443.518z"/>
									<path style="fill:#FFE9E3;" d="M171.759,458.839c-0.06,2.535-0.168,4.949-0.168,4.949h-49.749
										c-0.012-1.67,0-3.327,0.06-4.949H171.759z"/>
								</g>
								<g>
									<path style="fill:#0C1A3C;" d="M96.216,274.801c0,0,18.018,79.879,18.418,81.881c0.4,2.002-1.602,35.835-0.601,41.241
										c1.001,5.405,6.807,40.84,6.807,40.84s17.017,4.004,24.424-1.401c0,0,0.2-77.877,0.2-80.88
										c0-3.003-17.217-105.104-17.217-105.104l-30.63-0.4L96.216,274.801z"/>
									
										<line style="fill:none;stroke:#346E94;stroke-linecap:round;stroke-linejoin:round;stroke-miterlimit:10;" x1="105.322" y1="273.369" x2="127.475" y2="355.798"/>
									<path style="opacity:0.6;fill:#0C1A3C;" d="M128.248,251.378l-30.63-0.4l-1.401,23.824c0,0,4.667,20.69,9.303,41.273
										c3.554-5.046,11.177-17.992,13.368-38.694l12.636-6.509C129.59,259.337,128.248,251.378,128.248,251.378z"/>
									<path style="fill:none;stroke:#346E94;stroke-linecap:round;stroke-linejoin:round;stroke-miterlimit:10;" d="
										M127.475,355.798c0,0-5.638,36.868,3.08,77.616"/>
									<path style="fill:none;stroke:#346E94;stroke-linecap:round;stroke-linejoin:round;stroke-miterlimit:10;" d="
										M105.322,273.369"/>
									<path style="fill:none;stroke:#346E94;stroke-linecap:round;stroke-linejoin:round;stroke-miterlimit:10;" d="
										M122.242,432.257c0,0,8.809,2.603,20.821,0"/>
								</g>
							</g>
							<g>
								<g>
									<path style="fill:#0C1A3C;" d="M65.024,471.236c0.04,1.505-0.661,2.924-1.874,3.816c-2.368,1.741-6.81,4.192-12.779,3.895
										c-9.153-0.445-15.015-7.051-15.315-8.096c-0.24-0.853,0.012-2.294,0.901-6.462c0.216-0.985,0.456-2.138,0.745-3.459
										c1.514-6.895,8.564-30.03,8.564-30.03l19.519,4.36c-1.201,7.964,0.144,29.585,0.144,31.387c0,0.204,0,0.444,0.012,0.709
										C64.954,468.441,64.991,469.982,65.024,471.236z"/>
									<path style="fill:#346E94;" d="M45.016,446.789l-0.887,3.624c-0.317,1.295,0.716,2.522,2.047,2.428
										c1.732-0.123,4.041-0.175,6.147,0.137c2.048,0.303,4.095,1.066,5.62,1.747c1.23,0.549,2.636-0.258,2.768-1.598l0.373-3.803
										c0.064-0.656-0.199-1.307-0.716-1.717c-1.88-1.491-6.917-4.597-14.032-2.228C45.684,445.595,45.18,446.122,45.016,446.789z
										"/>
									<path style="fill:#FFE9E3;" d="M65.058,472.464c0.018,0.62-0.235,1.215-0.702,1.623c-1.787,1.564-6.77,5.22-13.985,4.86
										c-9.153-0.445-15.015-7.051-15.315-8.096c-0.24-0.853,0.012-2.294,0.901-6.462c2.258,3.027,7.075,7.952,14.558,8.048
										c6.655,0.096,11.604-2.823,14.426-5.081C64.958,468.84,65.021,471.174,65.058,472.464z"/>
								</g>
								<g>
									<path style="fill:#346E94;" d="M101.44,262.461c4.007,0.528,6.729,4.338,5.93,8.3l-2.704,13.406l-16.345,72.348
										l-20.133,79.846c0,0-6.206,1.602-13.613,0.801c-7.407-0.801-12.012-5.405-12.012-5.405s14.447-79.051,14.647-81.853
										c0.162-2.264,7.749-60.724,10.659-83.109c0.618-4.755,4.977-8.101,9.731-7.474L101.44,262.461z"/>
									<path style="fill:none;stroke:#0C1A3C;stroke-linecap:round;stroke-linejoin:round;stroke-miterlimit:10;" d="M71.833,268
										l-10.652,80.914c0,0-10.385,62.253-13.533,78.397"/>
									<path style="fill:none;stroke:#0C1A3C;stroke-linecap:round;stroke-linejoin:round;stroke-miterlimit:10;" d="
										M45.116,426.171c0,0,8.996,4.977,21.431,3.622"/>
								</g>
							</g>
						</g>
						<g>
							<g>
								<path style="fill:#D94923;" d="M181.901,269.721c0,0,2.102,6.081,3.228,7.432c1.126,1.351,10.135,5.555,10.811,5.781
									c0.676,0.225,5.105,2.402,6.081,2.477c0.976,0.075,5.931-3.829,6.231-4.279c0.3-0.451-2.252-2.928-2.252-2.928
									s3.754,1.426,4.505,0.976c0.751-0.45,0.45-2.027-0.676-2.628c-1.126-0.6-11.787-6.832-12.012-6.982
									c-0.225-0.15-10.435-4.579-10.435-4.579L181.901,269.721z"/>
								<path style="fill:#F16B47;" d="M188.508,264.466c0,0,2.552-0.826,3.979-0.3c1.426,0.526,6.231,3.754,7.132,4.129
									c0.901,0.375,4.354,1.126,5.105,1.576c0.751,0.451-0.676,1.802-2.177,1.952c-1.501,0.15-3.604,0.15-4.88-0.225
									c-1.276-0.375-4.204,0.826-6.982,0.826c-2.778,0-5.48-3.003-5.33-4.655C185.505,266.117,188.508,264.466,188.508,264.466z"
									/>
							</g>
							<polygon style="fill:#0C1A3C;" points="187.457,258.91 191.586,262.889 180.85,272.274 177.397,269.045 							"/>
							<g>
								<polygon style="fill:#AB1027;" points="189.404,259.181 182.798,265.969 177.699,271.2 146.014,243.065 131.152,188.262 
									147.106,182.9 149.338,182.9 165.984,234.961 								"/>
							</g>
							<path style="opacity:0.4;fill:#AB1027;" d="M149.338,182.9h-2.232l-15.954,5.362l10.16,37.466
								c2.95,10.88,10.973,19.665,21.54,23.59l26.552,9.862l-23.42-24.22L149.338,182.9z"/>
						</g>
						<g>
							<path style="fill:#CB1C3E;" d="M123.043,162.14l-1.652,0.15c0,0-18.768,5.305-22.372,8.609
								C95.415,174.202,71.75,244.5,71.75,244.5l-7.461,21.945c-0.534,1.302,0.2,2.773,1.563,3.12
								c7.504,1.909,29.853,7.25,45.628,7.414l4.85-13.742c0.266-0.753,1.37-0.609,1.434,0.187l1.123,13.956
								c0,0,7.473,0.621,13.347-1.101c0.818-0.24,1.336-1.046,1.212-1.89l-2.992-27.579c0,0,18.814-60.697,19.015-63.5
								c0.2-2.803-11.211-17.617-11.211-17.617L123.043,162.14z"/>
							<path style="fill:none;stroke:#0C1A3C;stroke-linecap:round;stroke-linejoin:round;stroke-miterlimit:10;" d="
								M139.833,176.417c0,0-5.616,32.107-11.503,47.528c-5.888,15.421-11.193,37.439-11.248,39.388"/>
						</g>
						<g>
							<path style="fill:#0C1A3C;" d="M126.667,155.583c-0.528,0.107-2.862,3.833-4.306,5.545c-0.594,0.703-0.71,1.688-0.303,2.514
								l9.446,19.156c0.3,0.609,1.119,0.728,1.58,0.229l4.66-5.041c0.95-1.027,2.563-1.057,3.551-0.067l3.366,3.377
								c0.722,0.724,1.928-0.02,1.605-0.99c0.1-6.102-2.809-14.181-6.744-21.831c-0.531-1.033-1.604-1.489-2.706-1.856
								C133.563,155.535,128,155.313,126.667,155.583z"/>
						</g>
						<g>
							<path style="fill:#F16B47;" d="M144.808,158.83l-3.063,9.153l-1.293,3.879c-0.311,0.934-1.544,1.133-2.133,0.345
								l-9.358-13.704c-0.391-0.572-0.458-1.305-0.179-1.939l1.612-3.656l3.087-8.408L144.808,158.83z"/>
							<path style="fill:#D94923;" d="M144.808,158.83l-3.063,9.153c-1.27-0.831-2.813-1.977-4.348-3.4
								c-5.511-5.114-7.031-13.24-3.917-20.083l0,0L144.808,158.83z"/>
						</g>
						<g>
							<g>
								<path style="fill:#FF8B61;" d="M159.679,134.062c-0.48,10.114-3.303,30.33-12.612,29.429
									c-3.471-0.336-6.534-1.862-8.961-4.18c-4.096-3.928-6.354-10.15-5.598-16.841c0.973-8.66,3.892-16.889,11.159-18.823
									c1.694-0.444,3.616-0.552,5.802-0.252C150.358,123.527,160.076,125.654,159.679,134.062z"/>
								<path style="fill:#F16B47;" d="M138.106,159.311c-4.096-3.928-6.354-10.15-5.598-16.841
									c0.973-8.66,3.892-16.889,11.159-18.823C141.517,130.927,137.193,147.431,138.106,159.311z"/>
							</g>
							<g>
								<path style="fill:#0C1A3C;" d="M162.081,138.266c-6.534,0.456-5.862-5.105-5.862-5.105
									c-4.492,0.156-5.021-3.003-5.021-3.003c-6.835,1.574-8.48-2.102-8.48-2.102l-0.913,7.58c0,0-3.892,0.601-4.42,1.357
									c-0.528,0.745-2.03,7.736-2.03,7.736l-1.874-0.228l-3.087,8.408c-4.276,0.144-3.748-4.132-3.748-4.132
									s-5.706,1.501-9.537-3.075c-3.82-4.576,0.528-10.51,0.528-10.51s-3.976-1.273-3.748-7.135
									c0.216-5.862,5.778-7.063,5.778-7.063s-2.511-2.643-0.529-6.991c0.12-0.288,0.276-0.589,0.445-0.889
									c2.787-4.877,9.922-2.619,9.922-2.619s0.889-5.934,7.88-6.607c6.979-0.685,8.853,5.177,8.853,5.177s1.958-3.604,6.835-2.631
									c4.877,0.973,4.06,5.934,4.06,5.934s4.204-1.802,8.096,2.619c3.916,4.433,0.601,11.123,0.601,11.123
									c0.769,0.408,1.345,1.081,1.73,1.886C169.289,131.551,167.403,137.893,162.081,138.266z"/>
								<path style="opacity:0.6;fill:#0C1A3C;" d="M162.081,138.266c-6.534,0.456-5.862-5.105-5.862-5.105
									c-4.492,0.156-5.021-3.003-5.021-3.003c-6.835,1.574-8.48-2.102-8.48-2.102l-0.913,7.58c0,0-3.892,0.601-4.42,1.357
									c-0.528,0.745-2.03,7.736-2.03,7.736l-1.874-0.228l-3.087,8.408c-4.276,0.144-3.748-4.132-3.748-4.132
									s-5.706,1.501-9.537-3.075c-3.82-4.576,0.528-10.51,0.528-10.51s-3.976-1.273-3.748-7.135
									c0.216-5.862,5.778-7.063,5.778-7.063s-2.511-2.643-0.529-6.991c-0.042,5.381,4.008,7.892,8.943,7.62
									c1.057-0.058,1.93,0.722,2.064,1.772c0.155,1.209,0.854,2.746,3.034,4.062c2.741,1.658,4.532-0.922,5.482-3.056
									c0.403-0.905,1.587-1.093,2.27-0.376c1.279,1.343,3.443,2.85,6.638,2.687c2.775-0.154,4.659-0.896,5.857-1.612
									c0.771-0.46,1.797-0.094,2.076,0.76c0.494,1.511,1.702,3.42,4.631,4.455c1.937,0.682,3.528,0.439,4.769-0.145
									c1.659-0.78,3.472,0.573,3.119,2.372C167.471,135.364,165.475,138.029,162.081,138.266z"/>
							</g>
							<path style="fill:#F16B47;" d="M133.781,143.335c0.145-1.074-0.061-2.189-0.679-3.079c-0.638-0.92-1.727-1.689-3.529-1.089
								c-3.187,1.062-2.675,7.82,1.693,8.642c1.017,0.191,1.983-0.543,2.122-1.568L133.781,143.335z"/>
						</g>
						<g>
							<g>
								<path style="fill:#CB1C3E;" d="M170.353,217.465c0-0.282,19.358-24.244,19.358-24.244l16.351,3.665l-19.922,23.963
									L170.353,217.465z"/>
								<polygon style="fill:#0C1A3C;" points="206.062,196.885 205.261,194.082 188.91,190.418 189.711,193.22 								"/>
								<polygon style="fill:#346E94;" points="170.353,217.465 169.552,214.662 188.91,190.418 189.711,193.22 								"/>
							</g>
							<g>
								<path style="fill:#FF8B61;" d="M197.517,209.593c0,0-0.312,0.396-0.793,1.009c-0.024,0.024-0.048,0.048-0.048,0.06
									c-1.309,1.646-3.712,4.697-4.42,5.609c-0.973,1.273-4.048,2.931-4.048,2.931s-1.73,2.174-3.159,3.447
									c-1.417,1.273-7.952,3.531-11.327,3.904c-3.375,0.372-11.039-0.3-11.039-0.3l0.144-9.838c0,0,1.297-1.502,2.703-3.075
									c1.273-1.406,2.631-2.883,3.231-3.375c1.273-1.057,7.663-4.36,9.237-5.633c1.574-1.273,3.159-2.775,4.432-1.874
									c1.273,0.901,0.3,5.249-4.505,8.709c0,0,9.682-1.429,11.183-1.802c1.501-0.372,8.48-6.534,10.666-5.489
									C201.949,204.932,197.517,209.593,197.517,209.593z"/>
								<path style="fill:#F16B47;" d="M196.676,210.662c-1.309,1.646-3.712,4.697-4.42,5.609c-0.973,1.273-4.048,2.931-4.048,2.931
									s-1.73,2.174-3.159,3.447c-1.417,1.273-7.952,3.531-11.327,3.904c-3.375,0.372-11.039-0.3-11.039-0.3l0.144-9.838
									c0,0,1.297-1.502,2.703-3.075c1.393,2.715,3.495,6.318,5.465,7.507c3.303,2.006,20.06-4.505,22.522-6.907
									C194.322,213.16,195.475,211.947,196.676,210.662z"/>
							</g>
							<polygon style="fill:#0C1A3C;" points="158.528,213.941 164.234,214.441 164.634,228.155 158.228,228.355 							"/>
							<path style="fill:#CB1C3E;" d="M158.788,212.965c0.629,0.098,1.089,0.643,1.081,1.28l-0.13,9.906l-0.06,5.009
								c0,0-53.657-0.408-55.05-1.009c-0.877-0.372-2.739-19.579-3.459-34.943v-0.036c-0.445-9.417-0.457-17.381,0.456-18.667
								c0,0,2.03-4.24,7.147-4.841c5.033-0.589,9.585,3.075,10.57,8.048l5.898,30.018L158.788,212.965z"/>
							<g>
								<path style="fill:#AB1027;" d="M108.761,169.566c3.788-0.932,8.107,1.093,10.316,4.579c0.564,0.869,1.003,1.827,1.295,2.835
									c0.302,1.008,0.485,1.853,0.713,2.792l1.31,5.498c0.805,3.678,1.663,7.346,2.391,11.04l1.132,5.533l1.044,5.55l-1.451-1.395
									c2.644,0.417,5.276,0.904,7.909,1.387c2.637,0.46,5.26,1.008,7.887,1.528c2.623,0.547,5.247,1.09,7.857,1.721
									c2.608,0.642,5.228,1.215,7.822,1.95l-0.031,0.198l-31.744-4.866l-0.128-0.02l-0.026-0.128
									c-1.489-7.381-2.882-14.78-4.327-22.169l-1.075-5.544c-0.378-1.841-0.589-3.74-1.576-5.344
									c-0.899-1.626-2.278-2.983-3.908-3.876c-0.821-0.436-1.698-0.767-2.611-0.953c-0.915-0.171-1.851-0.206-2.778-0.116
									L108.761,169.566z"/>
							</g>
							<path style="fill:#AB1027;" d="M159.739,224.151l-0.06,5.009c0,0-53.657-0.408-55.05-1.009
								c-0.877-0.372-2.739-19.579-3.459-34.943c2.378,11.015,5.898,24.973,9.261,29.669
								C110.43,222.878,142.082,225.316,159.739,224.151z"/>
							<path style="fill:#AB1027;" d="M118.313,213.632c1.76-2.034,4.16-4.367,6.928-5.901l-1.533-7.801
								c-4.415,2.109-6.598,8.088-7.64,12.551C115.759,213.806,117.422,214.661,118.313,213.632z"/>
						</g>
					</g>
				</g>
				<g>
					<path style="opacity:0.2;fill:#326C92;" d="M232.825,401.244c-65.6-1.687-74.266,13.248-54.922,15.748
						c19.344,2.5,61.977,7.786,80.895,3.836c18.919-3.95,23.281-8.649,31.509-8.952
						C298.535,411.573,332.866,403.817,232.825,401.244z"/>
					<g>
						<g>
							<path style="fill:#0C1A3C;" d="M281.56,395.521c0,0,9.276-3.192,9.176-12.966c-0.097-9.549-1.147-19.574,5.687-24.774
								c0.14-0.107,0.053-0.328-0.121-0.301c-0.726,0.11-2.006,0.427-3.371,1.337c0,0,1.282-1.775,3.695-2.909
								c2.828-1.33,1.983-5.594-1.142-5.661c-1.141-0.024-2.42,0.119-3.85,0.491c-9.176,2.394-12.467,14.263-9.874,22.74
								C284.353,381.956,284.652,391.032,281.56,395.521z"/>
							<g>
								<path style="fill:#0C1A3C;" d="M271.292,361.406c0,0,8.941,10.326,8.739,20.568c-0.202,10.242-10.977,19.18-11.682,19.925
									c-0.705,0.745,1.485,3.166,0.27,5.773c-1.215,2.607-17.715,2.142-24.092,2.235c-6.378,0.093-14.101,1.862-16.495,1.769
									c-2.394-0.093-2.3-1.21-2.3-1.21s-2.441,0.186-3.68-0.466c-1.238-0.652-1.128-1.304-1.128-1.304s-1.786-1.397-1.933-2.235
									c-0.146-0.838,4.979-9.921,10.788-8.962c3.935,0.649,9.995,0.95,15.721,1.167c1.142,0.043,1.993-0.789,0.921-1.186
									c-7.528-2.787-18.153-8.622-19.479-19.603c-2.079-17.225,22.994-18.994,28.225-14.618
									C260.399,367.635,271.292,361.406,271.292,361.406z"/>
							</g>
							<path style="fill:#0C1A3C;" d="M194.85,330.045c0,0-3.172,20.179-2.331,25.861c0.841,5.681,3.739,28.898,4.386,32.571
								c0.647,3.673-1.145,13.959-1.145,13.959s-8.096-0.441-9.918,0.294c-1.823,0.735-4.187,4.702-4.061,5.584
								c0.125,0.882,5.001,3.673,5.001,3.673s17.138-0.735,17.901-1.176s-0.673-8.082-0.506-8.669
								c0.167-0.588,3.216-23.51,3.216-23.51s3.813-18.073,4.18-20.424c0.367-2.351-16.759-28.653-16.759-28.653L194.85,330.045z"/>
							<path style="fill:#FFAB2F;" d="M283.101,386.311c-1.501,17.117-18.462,18.474-25.525,16.072
								c-7.063-2.402-22.078-18.618-27.771-23.579c-5.718-4.961-29.285-18.318-33.489-26.426c-0.949-1.826-1.514-4.336-1.838-7.195
								c-1.117-9.814,0.709-23.543,0.24-26.342c-0.601-3.604-3.003-7.399-3.003-7.399s21.621-27.435,25.525-12.42
								c3.904,15.015,22.919,40.444,41.237,51.855c16.156,10.066,24.132,16.624,24.757,29.777
								C283.329,382.408,283.281,384.294,283.101,386.311z"/>
							<path style="fill:#F88F00;" d="M283.101,386.311c-1.501,17.117-17.601,15.987-28.386,14.648
								c-7.404-0.919-19.217-17.195-24.911-22.155c-5.718-4.961-29.285-18.318-33.489-26.426c-0.01-0.018-0.019-0.037-0.028-0.055
								c-1.111-2.17,1.456-4.379,3.501-3.052c10.134,6.571,26.246,11.552,45.475,12.705c21.85,1.309,25.549,14.727,37.969,18.678
								C283.329,382.408,283.281,384.294,283.101,386.311z"/>
							<g>
								<path style="fill:#FFAB2F;" d="M277.648,403.813c-0.372,0.504,0.601,1.742,1.105,3.303c0.276,0.817,0.408,1.73,0.144,2.667
									c-0.769,2.703-17.345,2.222-23.711,2.318c-6.366,0.096-13.79,1.922-16.192,1.826c-2.414-0.096-2.511-1.249-2.511-1.249
									s-2.402,0.192-3.76-0.48c-1.345-0.673-1.345-1.358-1.345-1.358s-2.03-1.441-2.318-2.306
									c-0.144-0.421,0.565-2.186,1.97-4.024c1.477-1.946,3.736-3.964,6.607-4.553c5.598-1.165,18.03,1.249,20.732,1.538
									c2.691,0.288,4.528,0,4.528,0s-0.036,0-0.096-0.012c-1.694-0.336-25.826-5.333-30.654-22.546
									c-1.309-4.673-0.258-8.962,1.265-11.837c5.412-10.22,20.056-6.637,24.477-3.298c1.741,1.324,3.811,1.714,5.871,1.601
									c9.135-0.501,17.772,4.484,20.941,13.066c0.572,1.548,1.006,3.129,1.237,4.708c0.48,3.339-0.108,6.546-1.165,9.405
									C282.501,398.768,278.044,403.284,277.648,403.813z"/>
								<path style="fill:#D67C00;" d="M278.897,409.783c-0.769,2.703-17.345,2.222-23.711,2.318
									c-6.366,0.096-13.79,1.922-16.192,1.826c-2.414-0.096-2.511-1.249-2.511-1.249s-2.402,0.192-3.76-0.48
									c-1.345-0.673-1.345-1.358-1.345-1.358s-2.03-1.441-2.318-2.306c-0.144-0.421,0.565-2.186,1.97-4.024
									c-0.168,1.129,0.036,2.414,1.393,3.195c0,0,1.273-2.402,3.387-3.303c0,0-2.102,3.604,1.694,4.805
									c0,0,1.081-2.246,3.928-2.703c0,0-2.174,3.592-0.973,5.177c1.201,1.585,6.606-2.174,18.919-1.045
									c11.075,1.021,18.258-0.673,19.375-3.519C279.029,407.933,279.161,408.846,278.897,409.783z"/>
								<g>
									<path style="fill:#F88F00;" d="M231.877,371.505c-0.441,2.227-0.479,4.761,0.27,7.431
										c4.829,17.213,28.96,22.21,30.654,22.546c0.06,0.012,0.096,0.012,0.096,0.012l10.156,1.596
										c3.01,0.473,6.039-0.775,7.805-3.258c1.361-1.913,2.868-4.406,3.913-7.252c-2.871,2.523-6.811,4.168-12.18,4.336
										C252.484,397.542,235.016,383.698,231.877,371.505z"/>
								</g>
								<path style="opacity:0.5;fill:#F88F00;" d="M264.246,367.083c0,0-4.625-10.75-20.602-10.583
									c-5.83,0.061-10.836,2.281-14.523,5.315c-5.23,4.304-4.946,12.356,0.288,16.655c0.14,0.115,0.273,0.227,0.396,0.334
									c0.995,0.867,2.281,2.084,3.754,3.506l0.005,0.003c-5.301-8.386-0.934-21.977,12.368-21.302
									C259.233,361.685,264.246,367.083,264.246,367.083z"/>
							</g>
							<path style="fill:#FFAB2F;" d="M197.717,330.056c0,0-2.603,20.62-1.602,26.426c1.001,5.806,4.554,29.529,5.305,33.283
								c0.751,3.754-0.751,14.264-0.751,14.264s-8.108-0.45-9.91,0.3c-1.802,0.751-4.054,4.805-3.904,5.706
								c0.15,0.901,5.105,3.754,5.105,3.754s17.117-0.751,17.868-1.201c0.751-0.451-0.901-8.258-0.751-8.859
								c0.15-0.601,2.553-24.024,2.553-24.024s3.303-18.468,3.604-20.871s-17.567-29.279-17.567-29.279L197.717,330.056z"/>
						</g>
						<g>
							<path style="fill:#FFAB2F;" d="M215.39,305.976c-3.916,4.36-11.123,8.264-14.727,8.564c-3.604,0.3-14.558-3.604-15.159-4.204
								c-0.601-0.601-17.417-7.808-18.318-9.165c-0.096-0.144-0.168-0.324-0.228-0.553c-0.493-1.694-0.18-5.525-0.084-6.45
								c0-0.132,0.012-0.204,0.012-0.204s-3.748-1.946-4.06-3.604c-0.024-0.144-0.036-0.337-0.036-0.565v-0.012
								c0-2.355,1.285-8.661,2.366-10.835c1.273-2.547,16.288,1.201,16.288,1.201c6.162-0.889,6.919-7.652,15.928-4.805
								c9.009,2.859,16.817,5.405,18.462,8.564c0.625,1.201,1.273,4.048,1.622,7.363
								C218.033,296.667,217.805,303.285,215.39,305.976z"/>
							<path style="fill:#F88F00;" d="M215.39,305.976c-3.916,4.36-11.123,8.264-14.727,8.564c-3.604,0.3-14.558-3.604-15.159-4.204
								c-0.601-0.601-17.417-7.808-18.318-9.165c-0.096-0.144-0.168-0.324-0.228-0.553c4.709,1.766,13.814,2.306,22.45,2.51
								c12.516,0.3,15.772-10.366,15.772-10.366s0.144,5.658,4.649,7.868c3.519,1.718,6.643-4.432,7.628-9.357
								C218.033,296.667,217.805,303.285,215.39,305.976z"/>
							<path style="fill:#D67C00;" d="M180.7,293.423c0,0-6.342,2.547-13.826,0.745c0-0.132,0.012-0.204,0.012-0.204
								s-3.748-1.946-4.06-3.604c-0.024-0.144-0.036-0.337-0.036-0.565C165.949,292.667,173.229,294.036,180.7,293.423z"/>
							<path style="fill:#CB1C3E;" d="M192.211,313.139c0,0,9.509,1.101,16.416-2.803c6.907-3.904,9.009-11.261,9.009-11.261
								s1.426,0.601,1.652,3.078c0.225,2.477-3.754,9.159-11.111,12.612c-7.357,3.453-12.988,2.853-15.24,1.652
								C190.685,315.216,192.211,313.139,192.211,313.139z"/>
							<path style="fill:#0C1A3C;" d="M207.272,292.593c-1.441-0.078-2.75,0.807-3.23,2.168c-1.198,3.398-2.913,10.168-1.02,17.528
								c2.703,10.51,13.664,22.823,19.669,19.669c6.006-3.153,6.757-13.964-3.453-21.171c-6.928-4.89-8.464-11.44-8.735-15.146
								c-0.12-1.64-1.41-2.95-3.053-3.039L207.272,292.593z"/>
							<path style="fill:#0C1A3C;" d="M164.934,277.304c-2.11,0.068-0.801,4.855-0.801,4.855s3.453-1.351,4.655-2.753
								C169.989,278.004,168.037,277.203,164.934,277.304z"/>
						</g>
					</g>
				</g>
			</g>
		</g>
	</g>
</g>
</svg>
